<?xml version="1.0" standalone="no"?>
<!DOCTYPE svg PUBLIC "-//W3C//DTD SVG 20010904//EN"
 "http://www.w3.org/TR/2001/REC-SVG-20010904/DTD/svg10.dtd">
<svg version="1.0" xmlns="http://www.w3.org/2000/svg"
 width="190.000000pt" height="190.000000pt" viewBox="0 0 190.000000 190.000000"
 preserveAspectRatio="xMidYMid meet">
<metadata>
Created by potrace 1.14, written by Peter Selinger 2001-2017
</metadata>
<g transform="translate(0.000000,190.000000) scale(0.100000,-0.100000)"
fill="#000000" stroke="none">
<path d="M297 1883 c-3 -10 -14 -43 -25 -73 -48 -130 -44 -286 10 -412 19 -44
23 -48 55 -48 30 0 34 3 28 18 -4 9 -19 49 -33 87 -44 123 -30 292 34 417 l15
28 -40 0 c-28 0 -40 -5 -44 -17z"/>
<path d="M1530 1892 c0 -5 9 -27 20 -50 36 -74 49 -142 46 -242 -3 -78 -9
-109 -33 -172 l-31 -78 38 0 c27 0 39 5 43 18 3 9 12 35 21 57 41 112 41 249
1 380 -26 84 -35 95 -72 95 -18 0 -33 -4 -33 -8z"/>
<path d="M472 1803 c-56 -124 -56 -241 -2 -368 19 -43 20 -44 50 -33 23 8 29
15 24 27 -32 76 -44 117 -47 162 -5 57 13 147 37 194 9 17 16 33 16 36 0 5
-45 29 -54 29 -1 0 -12 -21 -24 -47z"/>
<path d="M1380 1839 c-34 -14 -33 -13 -12 -50 24 -44 42 -116 42 -172 0 -49
-24 -139 -47 -174 -9 -13 -14 -25 -12 -26 2 -2 16 -8 31 -15 25 -10 29 -9 42
11 43 68 61 197 41 293 -11 50 -49 146 -58 143 -1 0 -13 -5 -27 -10z"/>
<path d="M656 1755 c-40 -62 -45 -173 -11 -251 18 -40 19 -41 51 -31 l32 10
-20 45 c-27 60 -26 129 0 183 12 24 20 43 19 44 -52 24 -55 24 -71 0z"/>
<path d="M1203 1767 c-28 -12 -28 -20 -6 -54 23 -35 23 -145 0 -190 -22 -41
-22 -39 14 -52 29 -10 31 -9 44 23 32 77 37 134 16 208 -17 60 -38 79 -68 65z"/>
<path d="M913 1739 c-70 -21 -105 -103 -74 -176 19 -45 59 -68 116 -68 58 1
89 21 111 74 43 101 -47 201 -153 170z"/>
<path d="M590 700 c0 -529 3 -670 13 -671 72 -5 167 -2 170 6 2 6 4 308 4 673
l1 662 -94 0 -94 0 0 -670z"/>
<path d="M1128 1363 c-3 -7 -2 -1295 1 -1328 1 -8 108 -12 176 -6 7 1 10 231
10 669 l0 667 -92 3 c-50 1 -93 -1 -95 -5z"/>
</g>
</svg>
